<svg width="250" height="78" viewBox="0 0 250 78" fill="none" xmlns="http://www.w3.org/2000/svg">
<path d="M49.4648 2V76.1689" stroke="white" stroke-width="2.74" stroke-linecap="round" stroke-linejoin="round"/>
<path d="M38.1906 21.561V21.6847C38.1906 21.6847 38.1906 21.6847 38.1906 21.743V21.692C38.1906 21.692 38.1397 21.4664 38.1906 21.561Z" fill="url(#paint0_radial_60_4267)"/>
<path d="M73.8505 35.3076C73.866 35.6596 73.808 36.0109 73.6804 36.3393C73.5527 36.6677 73.3582 36.966 73.1091 37.2151C72.8599 37.4642 72.5617 37.6588 72.2333 37.7864C71.9049 37.9141 71.5536 37.972 71.2016 37.9565H62.469V52.6564H59.1797V15.6229H71.2016C71.5519 15.6108 71.901 15.669 72.2284 15.794C72.5559 15.919 72.855 16.1082 73.1082 16.3506C73.3526 16.5993 73.5432 16.8956 73.6684 17.2211C73.7936 17.5466 73.8506 17.8942 73.8359 18.2426L73.8505 35.3076ZM70.5612 35.0238V18.5337H62.4326V35.0238H70.5612Z" fill="white"/>
<path d="M94.7785 52.6564H91.3146L84.4304 32.8334L84.8816 32.1712H90.747V18.5337H82.3054V52.6564H79.0234V15.6229H91.3946C91.7437 15.6074 92.0923 15.6647 92.418 15.7913C92.7438 15.9178 93.0396 16.1108 93.2867 16.3579C93.5338 16.605 93.7268 16.9008 93.8533 17.2265C93.9798 17.5523 94.0372 17.9008 94.0217 18.2499V32.2803C94.0217 34.0656 92.8234 34.9583 90.4268 34.9583C90.1866 34.9583 89.8446 34.9583 89.3861 34.9583C88.9277 34.9583 88.5929 34.9583 88.3892 34.9583C90.5383 40.8286 92.6681 46.7279 94.7785 52.6564Z" fill="white"/>
<path d="M115.33 50.0221C115.344 50.3716 115.287 50.7204 115.162 51.0471C115.037 51.3737 114.846 51.6713 114.602 51.9214C114.349 52.1648 114.05 52.3547 113.723 52.4797C113.395 52.6048 113.046 52.6624 112.695 52.6491H102.325C101.976 52.6657 101.627 52.6092 101.301 52.483C100.974 52.3569 100.678 52.164 100.431 51.9166C100.183 51.6693 99.9904 51.373 99.8642 51.0467C99.7381 50.7205 99.6815 50.3715 99.6981 50.0221V18.2499C99.6827 17.9008 99.74 17.5523 99.8665 17.2265C99.9931 16.9008 100.186 16.605 100.433 16.3579C100.68 16.1108 100.976 15.9178 101.302 15.7913C101.628 15.6647 101.976 15.6074 102.325 15.6229H112.688C113.038 15.61 113.388 15.6678 113.715 15.7928C114.043 15.9179 114.342 16.1075 114.595 16.3506C114.839 16.5993 115.03 16.8956 115.155 17.2211C115.28 17.5466 115.337 17.8942 115.322 18.2426L115.33 50.0221ZM112.04 49.7455V18.5337H102.958V49.7455H112.04Z" fill="white"/>
<path d="M134.01 18.5337H128.283V52.6564H124.993V18.5337H119.223V15.6228H134.01V18.5337Z" fill="white"/>
<path d="M150.025 52.6564H137.887V15.6228H149.901V18.5337H141.169V32.3603H149.115V35.3149H141.154V49.7455H150.025V52.6564Z" fill="white"/>
<path d="M169.993 50.0221C170.009 50.3717 169.953 50.7207 169.827 51.0475C169.702 51.3743 169.511 51.6718 169.266 51.9214C169.011 52.1643 168.711 52.3538 168.382 52.4788C168.054 52.6038 167.703 52.6617 167.352 52.6491H157.782C157.433 52.6657 157.084 52.6092 156.758 52.483C156.431 52.3569 156.135 52.164 155.888 51.9166C155.64 51.6693 155.447 51.373 155.321 51.0467C155.195 50.7205 155.139 50.3715 155.155 50.0221V18.2499C155.14 17.9008 155.197 17.5523 155.324 17.2265C155.45 16.9008 155.643 16.605 155.89 16.3579C156.137 16.1108 156.433 15.9178 156.759 15.7913C157.085 15.6647 157.433 15.6074 157.782 15.6229H167.323C167.674 15.6107 168.024 15.6688 168.353 15.7937C168.682 15.9187 168.982 16.108 169.236 16.3506C169.482 16.5986 169.673 16.8947 169.799 17.2204C169.924 17.546 169.98 17.8941 169.964 18.2426V26.8515H166.653V18.5337H158.444V49.7455H166.682V40.6345H169.993V50.0221Z" fill="white"/>
<path d="M188.494 18.5337H182.774V52.6564H179.485V18.5337H173.707V15.6228H188.494V18.5337Z" fill="white"/>
<path d="M207.746 50.0221C207.763 50.3717 207.706 50.7209 207.581 51.0477C207.456 51.3746 207.264 51.672 207.019 51.9214C206.768 52.1646 206.47 52.3544 206.143 52.4794C205.817 52.6045 205.469 52.6622 205.119 52.6491H194.975C194.626 52.667 194.276 52.6112 193.95 52.4854C193.624 52.3595 193.327 52.1665 193.08 51.9188C192.833 51.6711 192.641 51.3743 192.516 51.0475C192.391 50.7207 192.336 50.3714 192.355 50.0221V15.6228H195.637V49.7455H204.421V15.6228H207.746V50.0221Z" fill="white"/>
<path d="M229.383 52.6564H225.941L219.057 32.8334L219.508 32.1712H225.374V18.5337H216.91V52.6564H213.621V15.6229H225.992C226.341 15.6074 226.69 15.6647 227.016 15.7913C227.341 15.9178 227.637 16.1108 227.884 16.3579C228.131 16.605 228.324 16.9008 228.451 17.2265C228.577 17.5523 228.635 17.9008 228.619 18.2499V32.2803C228.619 34.0656 227.421 34.9583 225.024 34.9583C224.784 34.9583 224.442 34.9583 223.984 34.9583C223.525 34.9583 223.191 34.9583 222.987 34.9583C225.141 40.8286 227.273 46.7279 229.383 52.6564Z" fill="white"/>
<path d="M249.957 50.0221C249.972 50.3716 249.915 50.7204 249.79 51.0471C249.664 51.3737 249.474 51.6713 249.229 51.9214C248.977 52.1648 248.678 52.3547 248.35 52.4797C248.022 52.6048 247.673 52.6624 247.322 52.6491H236.931C236.581 52.6657 236.232 52.6092 235.906 52.483C235.58 52.3569 235.283 52.164 235.036 51.9166C234.789 51.6693 234.596 51.373 234.47 51.0467C234.344 50.7205 234.287 50.3715 234.304 50.0221V18.2499C234.288 17.9008 234.345 17.5523 234.472 17.2265C234.599 16.9008 234.792 16.605 235.039 16.3579C235.286 16.1108 235.582 15.9178 235.907 15.7913C236.233 15.6647 236.582 15.6074 236.931 15.6229H247.293C247.644 15.61 247.993 15.6678 248.321 15.7928C248.648 15.9179 248.947 16.1075 249.2 16.3506C249.444 16.5993 249.635 16.8956 249.76 17.2211C249.885 17.5466 249.942 17.8942 249.928 18.2426L249.957 50.0221ZM246.668 49.7455V18.5337H237.586V49.7455H246.668Z" fill="white"/>
<path d="M58.6602 64.8311V59.2713H59.7663V62.6043H60.8797V61.4909H61.9931V62.6043H63.1065V59.2713H64.2199V64.8311H63.1065V63.7177H61.9931V62.6043H60.8797V63.7177H59.7663V64.8311H58.6602Z" fill="#E80F0F"/>
<path d="M67.1016 64.8311V59.2713H72.6613V60.3775H68.215V61.4909H70.4418V62.6043H68.215V63.7177H72.6613V64.8311H67.1016Z" fill="#E80F0F"/>
<path d="M75.543 64.8311V59.2713H76.6564V63.7177H81.1246V64.8311H75.543Z" fill="#E80F0F"/>
<path d="M85.1056 64.8311V63.7177H83.9922V60.3775H85.1056V59.2713H88.4385V60.3775H89.5519V61.4909H88.4385V60.3775H85.1056V63.7177H88.4385V62.6043H89.5519V63.7177H88.4385V64.8311H85.1056Z" fill="#E80F0F"/>
<path d="M93.547 64.8311V63.7177H92.4336V60.3775H93.547V59.2713H96.8799V60.3775H97.9934V63.7177H96.8799V64.8311H93.547ZM96.8799 63.7177V60.3775H93.547V63.7177H96.8799Z" fill="#E80F0F"/>
<path d="M100.883 64.8311V59.2713H101.989V60.3775H103.102V61.4909H104.216V60.3775H105.329V59.2713H106.443V64.8311H105.329V61.4909H104.216V62.6043H103.102V61.4909H101.989V64.8311H100.883Z" fill="#E80F0F"/>
<path d="M109.324 64.8311V59.2713H114.884V60.3775H110.438V61.4909H112.657V62.6043H110.438V63.7177H114.884V64.8311H109.324Z" fill="#E80F0F"/>
<path d="M128.425 64.8311V60.3775H126.242V59.2713H131.802V60.3775H129.575V64.8311H128.425Z" fill="#E80F0F"/>
<path d="M135.777 64.8311V63.7177H134.664V60.3775H135.777V59.2713H139.118V60.3775H140.224V63.7177H139.118V64.8311H135.777ZM139.118 63.7177V60.3775H135.777V63.7177H139.118Z" fill="#E80F0F"/>
<path d="M153.789 64.8311V61.4909H152.676V60.3775H151.562V59.2713H152.676V60.3775H153.789V61.4909H154.903V60.3775H156.009V59.2713H157.122V60.3775H156.009V61.4909H154.903V64.8311H153.789Z" fill="#E80F0F"/>
<path d="M161.118 64.8311V63.7177H160.012V60.3775H161.118V59.2713H164.458V60.3775H165.542V63.7177H164.429V64.8311H161.118ZM164.458 63.7177V60.3775H161.118V63.7177H164.458Z" fill="#E80F0F"/>
<path d="M169.567 64.8311V63.7177H168.453V59.2713H169.567V63.7177H172.899V59.2713H174.013V63.7177H172.899V64.8311H169.567Z" fill="#E80F0F"/>
<path d="M176.895 64.8311V59.2713H181.348V60.3775H182.454V61.4909H181.348V63.7177H182.454V64.8311H181.348V63.7177H180.235V62.6043H178.008V64.8311H176.895ZM181.348 61.4909V60.3775H178.008V61.4909H181.348Z" fill="#E80F0F"/>
<path d="M193.793 64.8311V59.2713H198.247V60.3775H199.353V61.4909H198.247V62.6043H194.906V64.8311H193.793ZM198.247 61.4909V60.3775H194.906V61.4909H198.247Z" fill="#E80F0F"/>
<path d="M202.242 64.8311V59.2713H206.689V60.3775H207.802V61.4909H206.689V63.7177H207.802V64.8311H206.689V63.7177H205.568V62.6043H203.385V64.8311H202.242ZM206.689 61.4909V60.3775H203.385V61.4909H206.689Z" fill="#E80F0F"/>
<path d="M210.66 64.8311V63.7177H212.887V60.3775H210.66V59.2713H216.22V60.3775H213.993V63.7177H216.22V64.8311H210.66Z" fill="#E80F0F"/>
<path d="M221.348 64.8311V63.7177H220.235V62.6043H219.121V59.2713H220.235V62.6043H221.348V63.7177H222.461V62.6043H223.575V59.2713H224.688V62.6043H223.575V63.7177H222.461V64.8311H221.348Z" fill="#E80F0F"/>
<path d="M227.57 64.8311V61.4909H228.684V60.3775H229.79V59.2713H230.903V60.3775H232.017V61.4909H233.13V64.8311H232.017V62.6043H228.684V64.8311H227.57ZM230.903 61.4909V60.3775H229.79V61.4909H230.903Z" fill="#E80F0F"/>
<path d="M237.129 64.8311V63.7177H236.016V60.3775H237.129V59.2713H240.498V60.3775H241.612V61.4909H240.498V60.3775H237.165V63.7177H240.498V62.6043H241.612V63.7177H240.498V64.8311H237.129Z" fill="#E80F0F"/>
<path d="M246.682 64.8311V61.4909H245.59V60.3775H244.477V59.2713H245.59V60.3775H246.703V61.4909H247.773V60.3775H248.887V59.2713H250V60.3775H248.887V61.4909H247.773V64.8311H246.682Z" fill="#E80F0F"/>
<path d="M0.436635 55.6255L6.25837 52.2707L19.6411 59.9845L27.1948 55.6182L13.8266 47.8898L19.7066 44.5642L38.8528 55.6182L19.6411 66.7159L0.429356 55.6182L0.436635 55.6255ZM39.2967 48.1445V54.8395L20.085 43.7564V38.8298L25.9067 35.4677V40.3798L39.2967 48.1154V48.1445ZM39.2967 27.7685V47.0093L33.475 43.6472V31.1305L39.2967 27.7685ZM38.8601 27.0407L33.0384 30.4028L19.6484 22.6744L12.0947 27.0407L25.4701 34.7764L19.5902 38.102L0.436635 27.0335L19.6411 15.943L38.8601 27.0335V27.0407ZM0 34.5217V27.7685L19.2117 38.8661V43.7928L13.39 47.1548V42.2282L0 34.4998V34.5217ZM0 35.5186L5.82174 39.1063V51.543L0 54.8978V35.4968V35.5186Z" fill="url(#paint1_linear_60_4267)"/>
<defs>
<radialGradient id="paint0_radial_60_4267" cx="0" cy="0" r="1" gradientUnits="userSpaceOnUse" gradientTransform="translate(2.17588 31.5308) scale(29.8437 29.8437)">
<stop stop-color="white"/>
<stop offset="1" stop-color="#69CDBC"/>
</radialGradient>
<linearGradient id="paint1_linear_60_4267" x1="-7.85207" y1="63.3538" x2="61.7978" y2="7.54518" gradientUnits="userSpaceOnUse">
<stop stop-color="#D41700"/>
<stop offset="1" stop-color="#7F0011"/>
</linearGradient>
</defs>
</svg>
