<svg width="48" height="48" viewBox="0 0 48 48" fill="none" xmlns="http://www.w3.org/2000/svg">
<g clip-path="url(#clip0_60_5814)">
<path d="M6 22H22V6H6V22ZM10 10H18V18H10V10Z" fill="url(#paint0_linear_60_5814)"/>
<path d="M6 42H22V26H6V42ZM10 30H18V38H10V30Z" fill="url(#paint1_linear_60_5814)"/>
<path d="M26 6V22H42V6H26ZM38 18H30V10H38V18Z" fill="url(#paint2_linear_60_5814)"/>
<path d="M42 38H38V42H42V38Z" fill="url(#paint3_linear_60_5814)"/>
<path d="M30 26H26V30H30V26Z" fill="url(#paint4_linear_60_5814)"/>
<path d="M34 30H30V34H34V30Z" fill="url(#paint5_linear_60_5814)"/>
<path d="M30 34H26V38H30V34Z" fill="url(#paint6_linear_60_5814)"/>
<path d="M34 38H30V42H34V38Z" fill="url(#paint7_linear_60_5814)"/>
<path d="M38 34H34V38H38V34Z" fill="url(#paint8_linear_60_5814)"/>
<path d="M38 26H34V30H38V26Z" fill="url(#paint9_linear_60_5814)"/>
<path d="M42 30H38V34H42V30Z" fill="url(#paint10_linear_60_5814)"/>
</g>
<defs>
<linearGradient id="paint0_linear_60_5814" x1="2.80296" y1="20.9405" x2="25.279" y2="-2.32842" gradientUnits="userSpaceOnUse">
<stop stop-color="#D41700"/>
<stop offset="1" stop-color="#7F0011"/>
</linearGradient>
<linearGradient id="paint1_linear_60_5814" x1="2.80296" y1="40.9405" x2="25.279" y2="17.6716" gradientUnits="userSpaceOnUse">
<stop stop-color="#D41700"/>
<stop offset="1" stop-color="#7F0011"/>
</linearGradient>
<linearGradient id="paint2_linear_60_5814" x1="22.803" y1="20.9405" x2="45.279" y2="-2.32842" gradientUnits="userSpaceOnUse">
<stop stop-color="#D41700"/>
<stop offset="1" stop-color="#7F0011"/>
</linearGradient>
<linearGradient id="paint3_linear_60_5814" x1="37.2007" y1="41.7351" x2="42.8198" y2="35.9179" gradientUnits="userSpaceOnUse">
<stop stop-color="#D41700"/>
<stop offset="1" stop-color="#7F0011"/>
</linearGradient>
<linearGradient id="paint4_linear_60_5814" x1="25.2007" y1="29.7351" x2="30.8198" y2="23.9179" gradientUnits="userSpaceOnUse">
<stop stop-color="#D41700"/>
<stop offset="1" stop-color="#7F0011"/>
</linearGradient>
<linearGradient id="paint5_linear_60_5814" x1="29.2007" y1="33.7351" x2="34.8198" y2="27.9179" gradientUnits="userSpaceOnUse">
<stop stop-color="#D41700"/>
<stop offset="1" stop-color="#7F0011"/>
</linearGradient>
<linearGradient id="paint6_linear_60_5814" x1="25.2007" y1="37.7351" x2="30.8198" y2="31.9179" gradientUnits="userSpaceOnUse">
<stop stop-color="#D41700"/>
<stop offset="1" stop-color="#7F0011"/>
</linearGradient>
<linearGradient id="paint7_linear_60_5814" x1="29.2007" y1="41.7351" x2="34.8198" y2="35.9179" gradientUnits="userSpaceOnUse">
<stop stop-color="#D41700"/>
<stop offset="1" stop-color="#7F0011"/>
</linearGradient>
<linearGradient id="paint8_linear_60_5814" x1="33.2007" y1="37.7351" x2="38.8198" y2="31.9179" gradientUnits="userSpaceOnUse">
<stop stop-color="#D41700"/>
<stop offset="1" stop-color="#7F0011"/>
</linearGradient>
<linearGradient id="paint9_linear_60_5814" x1="33.2007" y1="29.7351" x2="38.8198" y2="23.9179" gradientUnits="userSpaceOnUse">
<stop stop-color="#D41700"/>
<stop offset="1" stop-color="#7F0011"/>
</linearGradient>
<linearGradient id="paint10_linear_60_5814" x1="37.2007" y1="33.7351" x2="42.8198" y2="27.9179" gradientUnits="userSpaceOnUse">
<stop stop-color="#D41700"/>
<stop offset="1" stop-color="#7F0011"/>
</linearGradient>
<clipPath id="clip0_60_5814">
<rect width="48" height="48" fill="white"/>
</clipPath>
</defs>
</svg>
