<svg width="181" height="201" viewBox="0 0 181 201" fill="none" xmlns="http://www.w3.org/2000/svg">
<path d="M-176.978 365.774L-123.348 334.851L-0.0670776 405.953L69.5174 365.707L-53.6296 294.47L0.536331 263.816L176.911 365.707L-0.0670776 468L-177.045 365.707L-176.978 365.774ZM181 296.818V358.529L4.02219 256.37V210.959L57.6518 179.969V225.246L181 296.55V296.818ZM181 109.001V286.354L127.37 255.364V139.991L181 109.001ZM176.978 102.293L123.348 133.283L3.05176e-05 62.0467L-69.5844 102.293L53.6297 173.597L-0.536285 204.251L-176.978 102.226L-0.0670776 0L176.978 102.226V102.293ZM-181 171.249V109.001L-4.02223 211.294V256.706L-57.6519 287.696V242.284L-181 171.048V171.249ZM-181 180.439L-127.37 213.508V328.143L-181 359.066V180.237V180.439Z" fill="url(#paint0_linear_60_6025)"/>
<defs>
<linearGradient id="paint0_linear_60_6025" x1="-253.333" y1="437.01" x2="388.582" y2="-77.0291" gradientUnits="userSpaceOnUse">
<stop stop-color="#D41700"/>
<stop offset="1" stop-color="#7F0011"/>
</linearGradient>
</defs>
</svg>
