<svg width="181" height="212" viewBox="0 0 181 212" fill="none" xmlns="http://www.w3.org/2000/svg">
<path d="M4.02226 109.774L57.6519 78.851L180.933 149.953L250.517 109.707L127.37 38.4703L181.536 7.81592L357.911 109.707L180.933 212L3.95521 109.707L4.02226 109.774ZM362 40.8181V102.529L185.022 0.3703V-45.0412L238.652 -76.031V-30.7537L362 40.5497V40.8181ZM362 -146.999V30.354L308.37 -0.635818V-116.009L362 -146.999ZM357.978 -153.707L304.348 -122.717L181 -193.953L111.416 -153.707L234.63 -82.4034L180.464 -51.7489L4.02226 -153.774L180.933 -256L357.978 -153.774V-153.707ZM0 -84.7511V-146.999L176.978 -44.7058V0.705719L123.348 31.6956V-13.716L0 -84.9523V-84.7511ZM0 -75.5615L53.6296 -42.4922V72.1433L0 103.066V-75.7627V-75.5615Z" fill="url(#paint0_linear_60_6026)"/>
<defs>
<linearGradient id="paint0_linear_60_6026" x1="-72.333" y1="181.01" x2="569.582" y2="-333.029" gradientUnits="userSpaceOnUse">
<stop stop-color="#D41700"/>
<stop offset="1" stop-color="#7F0011"/>
</linearGradient>
</defs>
</svg>
