<svg width="65" height="65" viewBox="0 0 65 65" fill="none" xmlns="http://www.w3.org/2000/svg">
<path d="M41.5131 2.70963C37.8791 3.13028 34.2101 4.77784 31.4057 7.25502C26.7552 11.3681 24.4416 17.5143 25.2478 23.6138C25.4699 25.2146 25.7853 26.4298 26.4397 28.1942C26.8837 29.3744 26.9889 29.8184 27.0473 30.6481C27.1174 31.9684 26.9772 32.6695 26.1008 35.2402C25.575 36.806 25.3881 37.5187 25.3881 38.0095C25.3764 38.6405 25.4114 38.7106 25.8204 39.1196C26.2294 39.5285 26.2995 39.5636 26.9305 39.5519C27.4212 39.5519 28.1457 39.3649 29.6998 38.8391C32.2938 37.9628 32.9832 37.8225 34.2919 37.8927C35.1215 37.9511 35.5655 38.0562 36.7457 38.5003C38.5101 39.1546 39.7253 39.4701 41.3262 39.6921C44.2123 40.0777 47.2971 39.7389 50.1132 38.734C52.2164 37.9861 54.9741 36.2801 56.4931 34.7962C57.1825 34.1185 57.2993 33.6277 56.867 33.1954C56.4347 32.763 56.0491 32.8915 54.9273 33.8497C54.3548 34.3405 53.5018 34.9948 53.0227 35.3103C51.6556 36.2334 49.0382 37.4253 49.0382 37.1331C49.0498 36.6541 49.2251 36.4321 49.7977 36.175C50.4287 35.9062 50.6857 35.6024 51.4102 34.3405C51.7023 33.838 51.7257 33.6978 51.7257 32.4475C51.7257 31.7114 51.6789 30.9752 51.6205 30.8116C51.5037 30.5195 49.9496 29.3043 49.4471 29.1057C49.2719 29.0356 48.8979 29.0472 48.489 29.1057C47.5308 29.2692 47.5659 29.2809 47.2153 28.6383C46.9933 28.2176 46.7713 28.0073 46.4208 27.8437C45.4977 27.4114 44.2941 27.0258 43.4411 26.8972C42.9737 26.8271 42.4713 26.6869 42.3427 26.5934C41.9455 26.3247 41.3262 26.3831 40.6601 26.7687C39.8773 27.2244 39.6903 27.4932 39.6903 28.241C39.6903 28.7317 39.6202 28.9538 39.293 29.4212C38.7555 30.1924 38.7321 30.3092 38.8607 31.5478C38.9541 32.3891 39.0593 32.7864 39.3631 33.3823C39.8889 34.4106 40.3096 34.9013 40.8354 35.0649C41.0691 35.1467 41.3028 35.2519 41.3612 35.2869C41.408 35.3337 41.5365 35.9647 41.6533 36.6774C41.8403 37.7875 41.8403 37.9861 41.7001 37.9861C41.1626 37.9861 38.9775 37.4253 37.7156 36.9696C35.7642 36.2568 35.1566 36.1166 33.9063 36.1166C32.5625 36.1166 31.6745 36.3152 29.2557 37.1215C28.1807 37.4954 27.2693 37.7524 27.2343 37.7174C27.1875 37.6706 27.4563 36.7592 27.8185 35.6842C28.6364 33.2304 28.8234 32.3774 28.8117 30.9752C28.8117 29.7483 28.6598 29.1173 27.9003 27.0258C27.1291 24.8991 26.9071 23.6605 26.9071 21.2768C26.9071 19.01 27.059 17.97 27.6783 16.0303L28.0288 14.9203L28.3093 15.6447L28.578 16.3692L28.356 17.0119C28.2275 17.3741 28.0288 18.2271 27.9003 18.9282L27.6666 20.1901L27.9587 21.3469C28.2976 22.679 28.3443 22.7491 30.097 24.1513C31.2305 25.0627 31.2655 25.0978 32.0484 26.5584C32.9365 28.2293 32.9949 28.276 34.3737 28.5214C34.8411 28.6032 35.5772 28.8603 36.0914 29.1173C36.5938 29.3744 37.1547 29.5731 37.3416 29.5731C37.8791 29.5731 38.3582 29.094 38.6387 28.241C38.9425 27.3296 38.884 27.0491 38.2297 26.2546C37.5637 25.4366 37.3884 25.1445 37.2949 24.6888L37.2131 24.3149H38.2531C39.4332 24.3149 39.6786 24.198 40.0408 23.4969C40.1694 23.2399 40.4264 22.9594 40.6134 22.8543C41.034 22.6439 41.408 22.1882 41.5014 21.7676C41.5482 21.5105 41.7702 21.3469 42.5648 20.9263C44.0137 20.1784 44.224 19.6409 43.4995 18.4374C43.2775 18.0752 43.1373 17.7597 43.1724 17.7246C43.2191 17.7013 43.8384 17.4909 44.5512 17.2572C46.152 16.7314 46.374 16.5328 46.4441 15.5396C46.4909 14.9086 46.4441 14.7099 46.0001 13.6466C45.7197 12.9923 45.4159 12.373 45.3341 12.2561C45.1121 11.9991 43.7216 11.3447 43.3944 11.3447C43.2425 11.3447 42.8218 11.5317 42.4596 11.7654C41.9221 12.1042 41.63 12.408 41.0808 13.2377C40.368 14.2893 40.368 14.2893 39.959 14.2309C39.7253 14.1841 39.5384 14.1491 39.515 14.1257C39.1528 13.5999 38.6387 12.4431 38.6387 12.1276C38.6387 11.7537 38.7438 11.6485 40.2044 10.4917C42.0389 9.05449 42.0506 9.01943 41.6767 7.61726C41.2444 6.01643 40.9873 5.86453 39.1995 6.15665C38.2764 6.29687 38.0077 6.39035 37.4234 6.79932L36.734 7.26671L35.9979 6.95122C35.2968 6.63573 35.2734 6.61236 35.5071 6.44877C36.0563 6.06317 38.1596 5.23355 39.3865 4.91806C40.0993 4.74279 41.2093 4.52077 41.8403 4.43898C43.0789 4.28708 45.7313 4.3455 46.2338 4.54414C46.4558 4.62594 46.596 4.84795 46.8064 5.43219C46.9583 5.85284 47.1803 6.33192 47.2971 6.48383C47.5074 6.75257 47.5074 6.77595 47.2621 7.5004C47.0284 8.17813 47.0284 8.31834 47.1452 9.55694C47.2153 10.2814 47.3322 10.9825 47.4023 11.111C47.5542 11.3915 48.0333 11.6485 48.6993 11.8004C49.5172 11.9874 49.7977 11.7887 50.7792 10.3749C51.2466 9.69715 51.6906 9.08954 51.7607 9.03112C51.8425 8.97269 52.2982 8.82079 52.7773 8.70394C53.2564 8.5871 53.7822 8.36508 53.9575 8.22486L54.2613 7.9678L55.2545 8.8909C59.9985 13.2844 61.7629 20.1551 59.7648 26.4065C59.3559 27.6918 58.83 28.8836 58.2224 29.8652C57.9887 30.2508 57.8018 30.7065 57.8018 30.8701C57.8018 31.653 58.6781 31.9918 59.2624 31.4426C59.6597 31.0687 60.9801 28.3695 61.4124 27.0608C63.0132 22.1766 62.5575 17.0235 60.1387 12.408C57.755 7.89769 53.3382 4.43898 48.3137 3.15365C46.2805 2.63951 43.6047 2.46424 41.5131 2.70963ZM49.8911 5.5023C51.3284 6.06317 52.789 6.86943 52.5436 6.95122C52.4501 6.97459 52.0528 7.09144 51.6672 7.1966C50.6857 7.46535 50.5338 7.59388 49.7159 8.80911L48.9797 9.88411L48.8863 9.15965C48.8045 8.54036 48.8278 8.33003 49.0382 7.75747C49.3887 6.83437 49.3653 6.4254 48.933 5.75937C48.5708 5.19849 48.5123 5.0349 48.6409 5.0349C48.6759 5.0349 49.2368 5.24523 49.8911 5.5023ZM35.1799 8.49362C36.921 9.25313 37.0145 9.25313 38.0544 8.49362C39.071 7.75747 40.0292 7.64062 40.0408 8.25992C40.0408 8.33003 39.4683 8.84416 38.7672 9.40503C38.0661 9.95422 37.3416 10.5852 37.1664 10.7955C36.8626 11.1578 36.8626 11.2045 36.921 12.186C36.9794 13.1559 37.0145 13.2493 37.6688 14.3945C38.4517 15.785 38.6036 15.8784 40.0876 15.9836C41.2561 16.0654 41.3495 15.9953 42.3311 14.5113C43.1139 13.3195 43.4061 13.0858 43.78 13.3428C44.0137 13.4947 44.7148 14.932 44.7148 15.2474C44.7148 15.3176 44.1188 15.5629 43.4061 15.785C41.9104 16.2407 41.5365 16.5094 41.3262 17.304C41.2093 17.7246 41.221 17.8882 41.3846 18.3089C41.4898 18.5776 41.6533 18.8697 41.7468 18.9399C42.0156 19.1736 41.9571 19.2553 41.2444 19.6526C40.3563 20.1434 40.0642 20.4121 39.9824 20.8328C39.924 21.0665 39.7253 21.3002 39.3982 21.5339C39.1177 21.7325 38.8256 22.048 38.7438 22.235C38.6153 22.5622 38.6036 22.5622 37.5637 22.5622C36.4302 22.5622 36.0213 22.7024 35.6123 23.2165C35.3085 23.6138 35.3085 24.0111 35.6123 25.1679C35.8109 25.8923 35.9862 26.2429 36.4302 26.8038C36.7457 27.1893 36.9794 27.5282 36.956 27.5516C36.9327 27.5866 36.6289 27.4581 36.3017 27.2945C35.9628 27.1192 35.3319 26.9206 34.9112 26.8388L34.14 26.6986L33.3688 25.2964C32.6093 23.9176 32.5976 23.8942 31.2655 22.8426C30.0854 21.8961 29.9101 21.7092 29.7348 21.2067C29.4544 20.3771 29.4778 19.8279 29.8867 18.2855C30.4009 16.3225 30.4125 16.1822 30.062 15.3176C29.875 14.8502 29.7582 14.3477 29.7582 13.9738C29.7582 13.6349 29.6998 13.0858 29.6413 12.7352C29.5245 12.1393 29.5362 12.0925 29.9218 11.52C30.7981 10.1996 33.1234 7.83927 33.5441 7.83927C33.6259 7.83927 34.362 8.13139 35.1799 8.49362ZM42.9036 28.5682C43.4178 28.6733 44.2357 28.8836 44.7148 29.0589C45.5794 29.351 45.6028 29.3744 46.0352 30.1106C46.3039 30.5546 46.596 30.9168 46.7713 30.9752C46.9466 31.0453 47.3906 31.0337 47.9865 30.9519L48.933 30.8233L49.4238 31.1739L49.9145 31.5361L49.9496 32.4475C49.9729 33.3005 49.9496 33.4174 49.6224 33.9198C49.3653 34.3405 49.1083 34.5625 48.5708 34.8312C47.7996 35.2168 47.6126 35.4505 47.414 36.2451C47.3439 36.5489 47.192 37.028 47.0634 37.3084C46.818 37.9043 46.7713 37.916 44.7031 38.0679L43.6865 38.138L43.6164 37.7992C43.5813 37.6122 43.4411 36.7826 43.3126 35.9413C43.0322 34.2119 42.8686 33.9198 41.9221 33.6043C41.4547 33.4524 41.3379 33.3356 41.0224 32.7513C40.7419 32.2606 40.6368 31.8983 40.6134 31.3842C40.5783 30.7532 40.6134 30.6247 40.9289 30.1573C41.186 29.7951 41.3145 29.4212 41.3729 28.9421C41.4547 28.3228 41.4898 28.2644 41.7118 28.3228C41.852 28.3578 42.3895 28.463 42.9036 28.5682Z" fill="url(#paint0_linear_60_5696)"/>
<path d="M11.3541 13.6464C10.84 13.7749 8.23427 15.0836 7.4397 15.6094C5.41822 16.9064 4.13289 18.6124 3.31495 21.0779C2.7424 22.7605 2.59049 23.8472 2.60218 26.0674C2.61386 28.4043 2.8943 30.0753 3.64213 32.272C4.10952 33.5924 5.11442 35.8125 5.41822 36.1397C5.85056 36.6188 6.85546 36.2448 6.85546 35.6022C6.85546 35.462 6.62176 34.831 6.32964 34.2117C3.8174 28.825 3.65381 23.3448 5.88562 19.6173C6.56334 18.4956 7.52149 17.5141 7.68508 17.7711C7.75519 17.8646 8.26932 18.7059 8.85356 19.629C10.2557 21.8842 12.2538 24.7119 14.3337 27.3877L14.953 28.1823L14.5441 28.5212C13.9949 28.9652 13.3289 29.9818 13.025 30.8348C12.6628 31.828 12.6628 33.8261 13.0367 35.1698C13.3873 36.4201 14.4155 38.4416 15.3854 39.797C16.028 40.7085 20.3281 45.2071 23.1558 47.918C24.9786 49.6707 27.8414 51.3884 29.8162 51.9025C31.1482 52.2531 32.936 52.2531 33.9643 51.9025C34.9224 51.5637 35.939 50.956 36.4064 50.4302L36.7686 50.0213L38.8953 51.6338C41.1855 53.3748 44.3053 55.5248 46.1165 56.6232C46.7241 56.9854 47.2499 57.3126 47.2733 57.336C47.3785 57.4411 46.3736 58.3642 45.6491 58.8433C44.3521 59.6963 42.9499 60.1988 41.092 60.4792C36.4882 61.192 31.2417 59.5444 25.8784 55.7351C23.5765 54.0876 21.999 52.6737 17.5704 48.2802C12.7797 43.5245 11.4476 42.0756 9.75329 39.797C9.18074 39.0258 8.60818 38.278 8.46796 38.1378C7.8253 37.425 6.76198 38.2079 7.14758 39.1076C7.34622 39.5867 9.19242 42.0172 10.5479 43.5946C12.0085 45.2889 17.5704 50.9327 19.8139 53.0009C23.3077 56.2142 26.1237 58.2357 29.4072 59.8833C35.2963 62.8278 40.9167 63.2018 45.4972 60.9349C47.7641 59.8248 49.0728 58.3525 50.5801 55.2093C51.2578 53.8071 51.3162 53.6436 51.3162 52.884C51.3162 51.6571 51.0124 51.2131 49.3649 50.0213C47.8809 48.9579 47.4836 48.8528 47.063 49.3903C46.5956 49.9862 46.7942 50.3601 48.0679 51.2482C49.1662 52.0194 49.6219 52.4868 49.6219 52.849C49.6219 53.1061 48.6638 55.3145 48.395 55.665C48.2548 55.8637 48.1613 55.8286 46.9929 55.1042C44.504 53.5735 42.0619 51.8675 39.2575 49.7058L37.8203 48.6074L38.72 47.4389C39.795 46.0484 39.8417 46.0017 40.3208 46.0017C40.6129 46.0017 41.1154 46.2938 42.5409 47.3104C44.5274 48.7126 44.8312 48.8294 45.2752 48.3503C45.5556 48.0582 45.6024 47.6843 45.4154 47.3338C45.2986 47.1117 42.1203 44.8098 41.4426 44.471C40.87 44.1672 39.7716 44.1905 39.164 44.4943C38.5564 44.8098 38.276 45.1253 36.4298 47.5324C34.9925 49.4253 34.8523 49.5656 34.1629 49.9044C31.9077 51.0145 29.0333 50.3017 25.7966 47.8479C24.4061 46.8079 17.9093 40.2878 16.9979 39.0375C16.6473 38.5584 16.18 37.8457 15.9463 37.4601C14.287 34.6908 14.065 31.9448 15.362 30.2388C15.5373 30.0168 16.5422 29.1521 17.6055 28.3459C18.6688 27.528 19.6854 26.7217 19.8607 26.5581C20.7254 25.7519 20.959 24.3614 20.3982 23.3682C20.2346 23.076 18.7156 20.9027 17.0329 18.554C13.621 13.7749 13.5392 13.6931 12.2655 13.623C11.8916 13.5996 11.4826 13.6113 11.3541 13.6464ZM12.4875 15.4458C12.6394 15.5043 14.1351 17.5024 15.8528 19.8978C18.3767 23.4383 18.9376 24.3029 18.9376 24.6068C18.9376 25.0975 18.8908 25.1443 17.5003 26.2076L16.3435 27.1073L15.4204 25.9155C13.4691 23.4032 11.7397 20.9377 10.1856 18.4605L9.07557 16.6844L9.44949 16.4507C10.022 16.1002 11.7865 15.329 12.0202 15.3173C12.1253 15.3173 12.3356 15.3757 12.4875 15.4458Z" fill="#878787"/>
<defs>
<linearGradient id="paint0_linear_60_5696" x1="17.6442" y1="5.06656" x2="69.9663" y2="59.2572" gradientUnits="userSpaceOnUse">
<stop stop-color="#D41700"/>
<stop offset="1" stop-color="#7F0011"/>
</linearGradient>
</defs>
</svg>
