<svg width="65" height="65" viewBox="0 0 65 65" fill="none" xmlns="http://www.w3.org/2000/svg">
<path d="M5.23273 3.41813C4.6359 3.61301 3.61276 4.66051 3.43006 5.2817C3.21081 6.01251 3.21081 58.972 3.43006 59.7028C3.62494 60.3727 4.6359 61.3837 5.30581 61.5786C6.01226 61.7857 33.6613 61.7857 34.3678 61.5786C34.9646 61.3959 35.8294 60.6529 36.1217 60.0561C36.3288 59.6419 36.3531 59.1791 36.414 55.2692L36.4749 50.9453L37.5468 50.8478C38.8988 50.726 41.0791 50.1779 42.4798 49.5933C47.4371 47.547 51.3713 43.3083 53.0157 38.217C53.6856 36.1829 53.8926 34.7943 53.8926 32.4923C53.8926 29.4716 53.3323 26.9746 52.0656 24.3924C49.3251 18.7652 43.5151 14.6726 37.5103 14.1367L36.4749 14.0393L36.414 9.71529C36.3531 5.80545 36.3288 5.3426 36.1217 4.92847C35.8294 4.33165 34.9646 3.58865 34.3678 3.40595C33.71 3.21107 5.8661 3.22325 5.23273 3.41813ZM8.64318 6.30484C8.95987 7.59594 9.36182 8.21713 10.1901 8.70434L10.7747 9.04538H19.849H28.9232L29.4713 8.74088C30.2996 8.27803 30.7381 7.60812 31.0548 6.31702L31.3227 5.20862H32.6016C33.7831 5.20862 33.8927 5.23298 34.1729 5.51313L34.4652 5.80545L34.4408 9.92236L34.4043 14.0393L33.5395 14.1123C30.6284 14.3803 27.7052 15.4278 25.0743 17.1818C23.5274 18.1927 21.1157 20.5922 20.1048 22.1269C18.6675 24.295 17.6931 26.7189 17.218 29.2645C16.9014 30.9454 16.9014 34.0392 17.218 35.72C18.0585 40.2876 20.5067 44.2949 24.1486 47.1207C26.9622 49.3009 30.5188 50.6773 33.978 50.9209L34.4043 50.9453L34.4408 55.0622L34.4652 59.1791L34.1729 59.4714L33.8684 59.7759H19.849H5.82956L5.53723 59.4714L5.23273 59.1791V32.4923V5.80545L5.53723 5.51313C5.8052 5.23298 5.91482 5.20862 7.0963 5.20862H8.37522L8.64318 6.30484ZM29.1546 5.90289C29.045 6.34138 28.8501 6.71896 28.6674 6.87731L28.3629 7.15745H19.849H11.335L11.0305 6.87731C10.8478 6.71896 10.6529 6.34138 10.5433 5.90289L10.3728 5.20862H19.849H29.3252L29.1546 5.90289ZM36.6698 16.2317C37.8026 16.8164 38.9597 18.1805 39.8367 20.0076C40.4335 21.2378 40.9329 22.6628 40.8111 22.7846C40.6649 22.9308 38.4238 23.4667 37.3641 23.6007C36.0852 23.7591 34.7941 23.7591 33.4908 23.6007C32.4433 23.4667 30.2143 22.9308 30.056 22.7725C29.8489 22.5532 31.0669 19.7152 31.9074 18.485C32.8331 17.1209 33.5639 16.4631 34.5505 16.0977C35.1229 15.8907 36.1095 15.9516 36.6698 16.2317ZM30.7259 16.8042C30.6772 16.8894 30.4336 17.267 30.19 17.6324C29.6053 18.5216 28.838 20.0563 28.4969 21.0429C28.3386 21.4814 28.1802 21.8711 28.1437 21.9199C27.9975 22.0904 24.855 20.0685 24.8428 19.8127C24.8428 19.7761 25.3057 19.4107 25.8782 18.9966C27.6078 17.7664 31.1278 16.183 30.7259 16.8042ZM41.6515 17.1574C42.1509 17.3645 42.9183 17.7177 43.3568 17.9613C44.2215 18.4363 46.0364 19.6909 46.0364 19.8127C46.0364 20.0563 42.8817 22.0782 42.7477 21.932C42.699 21.8711 42.5407 21.4814 42.3823 21.0429C42.0413 20.0563 41.2739 18.5216 40.6893 17.6324C40.4457 17.267 40.2021 16.8894 40.1412 16.792C40.0072 16.5727 40.4213 16.6702 41.6515 17.1574ZM25.123 22.4801C25.598 22.809 26.341 23.2597 26.7673 23.4789C27.1814 23.686 27.5469 23.9052 27.5712 23.9539C27.5956 23.9905 27.5103 24.5142 27.3885 25.1232C27.1205 26.4143 26.8404 28.6677 26.7308 30.3242L26.6455 31.5179H22.7844H18.9233L19.0207 30.58C19.3618 27.3766 20.9695 23.7591 22.9915 21.6275L23.4178 21.1769L23.8319 21.5301C24.0511 21.725 24.6358 22.1513 25.123 22.4801ZM48.716 22.6263C50.4335 24.9649 51.5662 27.8151 51.8585 30.58L51.956 31.5179H48.0827C44.4286 31.5179 44.2094 31.5057 44.2094 31.2986C44.2094 29.9222 43.5638 24.8796 43.2959 24.1854C43.235 24.0392 43.4055 23.8809 44.051 23.5276C45.0863 22.9552 46.9012 21.7372 47.1935 21.4083C47.4128 21.1647 47.4249 21.1647 47.7782 21.4935C47.9731 21.6884 48.3872 22.1878 48.716 22.6263ZM31.1157 25.1232C34.2094 25.8662 36.9134 25.8541 40.0072 25.0623C40.7502 24.8796 41.3836 24.7578 41.4323 24.8066C41.6272 25.0014 42.2605 29.8857 42.2605 31.2864C42.2605 31.5057 42.0048 31.5179 35.4396 31.5179C28.8745 31.5179 28.6187 31.5057 28.6187 31.2864C28.6187 29.9953 29.2277 25.1111 29.4348 24.7822C29.4713 24.7213 29.5809 24.7213 29.7028 24.7578C29.8124 24.8066 30.4457 24.9649 31.1157 25.1232ZM26.7308 34.6482C26.8404 36.3169 27.1205 38.5702 27.3885 39.8613C27.5103 40.4581 27.5956 40.994 27.5712 41.0306C27.5469 41.0793 27.1814 41.2986 26.7673 41.5056C25.8782 41.9685 24.4165 42.9429 23.8319 43.4545L23.4178 43.8077L22.9915 43.357C20.9695 41.2255 19.3618 37.608 19.0207 34.4046L18.9233 33.4667H22.7844H26.6455L26.7308 34.6482ZM42.2605 33.6981C42.2605 35.0988 41.6272 39.9831 41.4323 40.178C41.3836 40.2267 40.7502 40.1049 40.0072 39.9222C36.8282 39.1183 34.0511 39.1183 30.872 39.9222C30.1412 40.1049 29.4957 40.2267 29.447 40.178C29.2521 39.9831 28.6187 35.0988 28.6187 33.6981C28.6187 33.4789 28.8745 33.4667 35.4396 33.4667C42.0048 33.4667 42.2605 33.4789 42.2605 33.6981ZM51.8585 34.4046C51.5175 37.608 49.9097 41.2255 47.8878 43.357L47.4615 43.8077L47.0474 43.4545C46.5114 42.9794 45.0742 42.0294 44.051 41.4569C43.4055 41.1037 43.235 40.9453 43.2959 40.7992C43.5638 40.1049 44.2094 35.0623 44.2094 33.6859C44.2094 33.4789 44.4286 33.4667 48.0827 33.4667H51.956L51.8585 34.4046ZM37.4737 41.396C38.4116 41.5178 40.0194 41.8954 40.6162 42.1146L40.9207 42.2243L40.5431 43.2961C39.386 46.5726 37.5468 48.765 35.7685 49.0086C34.1729 49.2279 32.4311 47.7784 31.1035 45.0988C30.5432 43.9538 29.9464 42.3582 30.0316 42.2243C30.1047 42.0903 31.9926 41.6031 33.0645 41.4447C34.2947 41.2498 36.2435 41.2255 37.4737 41.396ZM28.4969 43.9417C28.838 44.9283 29.6053 46.463 30.19 47.3521C30.4336 47.7175 30.6772 48.0951 30.7381 48.1925C30.8233 48.3265 30.7746 48.3387 30.4945 48.2778C29.7758 48.0951 28.2898 47.4496 27.3398 46.9014C26.341 46.329 24.8428 45.2815 24.8428 45.1719C24.855 44.9161 27.9975 42.9063 28.1437 43.0647C28.1802 43.1134 28.3386 43.5032 28.4969 43.9417ZM45.0985 44.4045C45.6101 44.7699 46.0364 45.111 46.0364 45.1597C46.0364 45.3302 44.051 46.6578 42.9426 47.2303C41.8221 47.7906 40.2264 48.3996 40.129 48.3022C40.0925 48.2778 40.263 47.9855 40.4944 47.6688C41.2252 46.6335 42.09 44.8552 42.6868 43.1134C42.7599 42.9063 43.7222 43.4179 45.0985 44.4045Z" fill="#878787"/>
<path d="M7.17969 56.8527V57.8271H8.1541H9.12852V56.8527V55.8783H8.1541H7.17969V56.8527Z" fill="#878787"/>
<path d="M11.0781 56.8527V57.8271H19.8479H28.6176V56.8527V55.8783H19.8479H11.0781V56.8527Z" fill="#878787"/>
<path d="M30.5664 56.8527V57.8271H31.5408H32.5152V56.8527V55.8783H31.5408H30.5664V56.8527Z" fill="#878787"/>
<path d="M40.8583 8.52169C40.6025 9.45957 40.3954 10.3122 40.3832 10.4096C40.3711 10.5436 40.6147 10.6654 41.1628 10.8238C41.6013 10.9456 42.0154 11.043 42.0763 11.0552C42.1494 11.0552 42.4173 10.2756 42.6609 9.31341C43.1116 7.62036 43.1725 7.27931 43.0507 7.27931C43.0142 7.27931 42.6122 7.16969 42.1494 7.04789L41.3211 6.81647L40.8583 8.52169Z" fill="url(#paint0_linear_60_5674)"/>
<path d="M47.2454 10.105C46.9653 10.5922 46.5268 11.3474 46.271 11.7859L45.8203 12.5776L46.4415 12.9674C47.0749 13.3693 47.489 13.552 47.5499 13.4668C47.5743 13.4546 48.0006 12.7116 48.5121 11.8224C49.1699 10.6653 49.3891 10.1903 49.2917 10.105C49.2064 10.0441 48.8288 9.82488 48.4512 9.60563L47.757 9.21587L47.2454 10.105Z" fill="url(#paint1_linear_60_5674)"/>
<path d="M51.9414 14.5876L50.6016 15.9274L51.308 16.6217L52.0023 17.3281L53.3665 15.9639L54.7428 14.5876L54.0729 13.9177C53.7075 13.5523 53.3786 13.2478 53.3421 13.2478C53.3056 13.2478 52.6722 13.8568 51.9414 14.5876Z" fill="url(#paint2_linear_60_5674)"/>
<path d="M56.0575 19.4473C55.1683 19.9589 54.4375 20.4218 54.4375 20.4827C54.4375 20.5436 54.6446 20.9455 54.8882 21.3596L55.3388 22.1392L55.8869 21.8103C56.2036 21.6398 56.9588 21.2013 57.58 20.8359L58.7006 20.1781L58.3717 19.5691C57.7018 18.3877 57.8723 18.3998 56.0575 19.4473Z" fill="url(#paint3_linear_60_5674)"/>
<path d="M58.5209 25.2819C57.6561 25.5255 56.9131 25.7325 56.8887 25.7447C56.8278 25.7934 57.2541 27.4134 57.3516 27.523C57.4125 27.5961 61.0056 26.7191 61.0909 26.6095C61.1031 26.5973 60.9935 26.1832 60.8717 25.696C60.5793 24.6485 60.7255 24.6729 58.5209 25.2819Z" fill="url(#paint4_linear_60_5674)"/>
<path d="M57.8516 32.4924V33.4668H59.8004H61.7492V32.4924V31.518H59.8004H57.8516V32.4924Z" fill="url(#paint5_linear_60_5674)"/>
<path d="M57.3002 37.5102C57.1297 38.0583 56.8495 39.2033 56.8861 39.2398C56.9957 39.3251 60.5401 40.202 60.5767 40.1533C60.6497 40.0802 61.137 38.3385 61.0761 38.3385C61.0517 38.3385 60.2234 38.1192 59.2368 37.8513C58.2381 37.5833 57.4098 37.3641 57.3976 37.3641C57.3733 37.3641 57.3367 37.4371 57.3002 37.5102Z" fill="url(#paint6_linear_60_5674)"/>
<path d="M54.8882 43.6249C54.6446 44.0391 54.4375 44.441 54.4375 44.5019C54.4375 44.5628 55.1805 45.0378 56.0818 45.5494L57.7262 46.4751L58.1646 45.7321C58.4204 45.318 58.6397 44.9404 58.664 44.8917C58.7006 44.8186 58.055 44.4288 55.8869 43.1743L55.3388 42.8454L54.8882 43.6249Z" fill="url(#paint7_linear_60_5674)"/>
<path d="M51.2715 48.3874L50.6016 49.0573L51.9779 50.4337L53.3421 51.7979L54.0364 51.0914L54.7428 50.3971L53.403 49.0573C52.6722 48.3265 52.0388 47.7175 52.0023 47.7175C51.9657 47.7175 51.6369 48.022 51.2715 48.3874Z" fill="url(#paint8_linear_60_5674)"/>
<path d="M46.5836 51.9319C46.1816 52.1755 45.8406 52.3825 45.8284 52.3947C45.8162 52.4069 46.2425 53.1499 46.7663 54.0512C47.3387 55.0378 47.7894 55.6834 47.8868 55.659C47.9721 55.6346 48.3619 55.4276 48.7394 55.1962L49.4337 54.7698L48.4958 53.1377C47.9843 52.2364 47.5092 51.4934 47.4362 51.4934C47.3753 51.4934 46.9855 51.6883 46.5836 51.9319Z" fill="url(#paint9_linear_60_5674)"/>
<path d="M41.1019 54.1729C40.6025 54.319 40.3711 54.4408 40.3833 54.5748C40.3954 54.6723 40.6025 55.5249 40.8583 56.4627L41.3211 58.168L42.1494 57.9365C42.6122 57.8147 43.0142 57.7051 43.0507 57.7051C43.1725 57.7051 43.1116 57.3641 42.661 55.6588C42.1616 53.7344 42.259 53.8318 41.1019 54.1729Z" fill="url(#paint10_linear_60_5674)"/>
<defs>
<linearGradient id="paint0_linear_60_5674" x1="39.8388" y1="7.09714" x2="45.3331" y2="10.7509" gradientUnits="userSpaceOnUse">
<stop stop-color="#D41700"/>
<stop offset="1" stop-color="#7F0011"/>
</linearGradient>
<linearGradient id="paint1_linear_60_5674" x1="45.1223" y1="9.49871" x2="51.044" y2="14.5127" gradientUnits="userSpaceOnUse">
<stop stop-color="#D41700"/>
<stop offset="1" stop-color="#7F0011"/>
</linearGradient>
<linearGradient id="paint2_linear_60_5674" x1="49.7741" y1="13.5179" x2="55.5024" y2="19.5369" gradientUnits="userSpaceOnUse">
<stop stop-color="#D41700"/>
<stop offset="1" stop-color="#7F0011"/>
</linearGradient>
<linearGradient id="paint3_linear_60_5674" x1="53.5857" y1="18.9015" x2="58.3208" y2="24.9287" gradientUnits="userSpaceOnUse">
<stop stop-color="#D41700"/>
<stop offset="1" stop-color="#7F0011"/>
</linearGradient>
<linearGradient id="paint4_linear_60_5674" x1="56.0418" y1="25.0357" x2="59.3824" y2="30.4912" gradientUnits="userSpaceOnUse">
<stop stop-color="#D41700"/>
<stop offset="1" stop-color="#7F0011"/>
</linearGradient>
<linearGradient id="paint5_linear_60_5674" x1="57.0728" y1="31.647" x2="59.2182" y2="36.0894" gradientUnits="userSpaceOnUse">
<stop stop-color="#D41700"/>
<stop offset="1" stop-color="#7F0011"/>
</linearGradient>
<linearGradient id="paint6_linear_60_5674" x1="56.0439" y1="37.5489" x2="59.6115" y2="43.1045" gradientUnits="userSpaceOnUse">
<stop stop-color="#D41700"/>
<stop offset="1" stop-color="#7F0011"/>
</linearGradient>
<linearGradient id="paint7_linear_60_5674" x1="53.5927" y1="43.0857" x2="58.6064" y2="49.1319" gradientUnits="userSpaceOnUse">
<stop stop-color="#D41700"/>
<stop offset="1" stop-color="#7F0011"/>
</linearGradient>
<linearGradient id="paint8_linear_60_5674" x1="49.7741" y1="47.9877" x2="55.5024" y2="54.0066" gradientUnits="userSpaceOnUse">
<stop stop-color="#D41700"/>
<stop offset="1" stop-color="#7F0011"/>
</linearGradient>
<linearGradient id="paint9_linear_60_5674" x1="45.1077" y1="51.7693" x2="50.9286" y2="56.9845" gradientUnits="userSpaceOnUse">
<stop stop-color="#D41700"/>
<stop offset="1" stop-color="#7F0011"/>
</linearGradient>
<linearGradient id="paint10_linear_60_5674" x1="39.8388" y1="54.256" x2="45.2935" y2="57.9261" gradientUnits="userSpaceOnUse">
<stop stop-color="#D41700"/>
<stop offset="1" stop-color="#7F0011"/>
</linearGradient>
</defs>
</svg>
